<?xml version="1.0" encoding="UTF-8"?>
<svg id="Layer_1" data-name="Layer 1" xmlns="http://www.w3.org/2000/svg" viewBox="0 0 1024 1024">
  <defs>
    <style>
      .cls-1 {
        fill: #fff;
        stroke-width: 0px;
      }
    </style>
  </defs>
  <path class="cls-1" d="m288.09,302.32l-1.63-3.91c-10.75,0-21.84,1.3-31.61,1.3-11.73,0-23.14-1.3-29.01-1.3l.65,3.91c5.21.33,12.39,1.3,17.27,1.96,4.89.65,6.85,2.93,5.54,8.15-8.15,32.59-32.59,100.71-57.69,167.53-17.93-51.17-54.43-151.23-58.99-169.16-1.3-4.24-.65-5.86,4.89-6.52l15.32-1.96-1.3-3.91c-10.11,0-24.77,1.3-37.81,1.3-13.69,0-30.31-1.63-37.16-1.3l.33,3.91c16.3.98,19.88,1.96,26.4,15.32,10.11,22.81,46.93,123.2,69.42,194.9,3.91-.98,10.76-.98,14.99-.33,22.81-65.18,53.45-152.2,69.75-190.01,7.5-16.95,12.71-19.56,30.64-19.88Z"/>
  <path class="cls-1" d="m329.8,502.76c-15.64,0-25.74-6.19-33.24-18.58-6.19-10.43-11.08-29.01-10.1-48.89h39.76c23.47-.33,40.09-1.63,44.98-3.59,3.26-1.3,4.89-6.84,4.89-12.71,0-14.01-6.84-51.82-52.47-51.82s-65.19,35.52-65.19,75.62c0,18.25,4.56,36.18,12.06,46.93,10.43,14.99,26.4,22.82,50.52,22.82,28.35,0,46.93-14.34,55.4-41.07l-3.58-1.96c-7.82,20.53-18.58,33.24-43.02,33.24Zm-7.82-130.69h.33c23.14,0,29.01,27.05,29.01,44.32,0,7.17-1.95,10.43-6.52,11.73-5.22.98-15.32,1.96-30.64,1.96h-27.05c1.63-30.31,11.73-58.01,34.87-58.01Z"/>
  <path class="cls-1" d="m409.33,497.55c-.98,5.86-3.26,7.5-17.6,8.15l-.98,3.91c9.45,0,18.58-1.3,32.27-1.3,1.93,0,3.9.03,5.88.08,1.54-9.16,3.87-18.05,6.97-26.58-.14-10.25-.14-25.94-.14-52.38,0-8.47.65-13.36,2.28-18.91,3.91-15.97,12.39-29.01,22.16-29.01,8.15,0,10.1,5.22,10.75,13.36.65,3.58,4.24,5.54,8.47,5.54s12.39-3.26,12.39-15.32c0-9.78-6.84-17.93-18.25-17.93-19.23,0-29.99,15.97-37.81,34.87h-.65c0-8.47-.98-27.05-1.96-33.24l-.98-.65c-8.8,3.58-30.31,5.54-40.41,5.86l-.33,3.58h10.43c4.24,0,5.54,1.63,6.19,4.24,1.3,5.54,2.61,18.91,2.61,40.74v31.94c0,22.16-.65,36.18-1.3,43.02Z"/>
  <path class="cls-1" d="m532.52,332.63c7.82,0,14.99-5.54,14.99-14.34s-4.56-14.67-13.69-14.67h-.33c-7.5,0-14.34,5.87-14.34,14.99s6.52,14.02,13.36,14.02Z"/>
  <path class="cls-1" d="m520.79,381.19c.3,2.12.6,6.08.84,11.75,8.38-3.4,17.12-6.1,26.16-7.97.27-7.84.55-13.9.7-17.8-13.04,3.26-31.29,4.89-44.98,5.54l-.65,3.91c14.34-.65,17.6.32,17.93,4.56Z"/>
  <path class="cls-1" d="m547.65,389.18c-2.61.55-5.18,1.2-7.73,1.88-.43.12-.85.25-1.28.37-2.21.62-4.41,1.29-6.58,2.01-.15.05-.31.09-.47.14-.15.05-.29.11-.43.16-3.17,1.07-6.31,2.21-9.39,3.49h0c-3.47,1.45-6.86,3.04-10.2,4.74,3.47-1.57,7.08-2.74,10.26-2.8,5.54-.1,9.79,3.13,9.79,13.4,0,.47.11.84.16,1.27.08,9.5.15,19.06.21,28.71.15,24.51-1.01,41.83-1.39,49.45-.6,5.49-2.38,8.43-11.67,9.88-2.94.46-6.62.77-11.28.96-.14.85-.28,1.7-.42,2.55-.13.76-.25,1.52-.38,2.28,11.28,0,20.97-1.61,37.87-1.59,7.67,0,14.52.32,20.63.67,8,.46,14.69.98,19.91.99.13-1.61.25-3.21.38-4.82-17.6-.84-20.44-2.46-21.28-10.88-.85-8.4-1.28-20.54-1.58-49.4-.13-11.6-.28-23.06-.46-34.42.04-.28.14-.56.14-.85,0-11.63,8.47-17.72,15.24-18.18,5.02-.33,10.6-.22,14.34,4.36,1.31,1.6,2.4,3.73,3.16,6.59.07.09.14.15.21.24,4.32,12.72,14.43,21.84,29.37,28.12,12.72,5.57,29.37,13.97,40.39,19.57,10.33,4.72,15.23,12.63,16.21,21.71.1.95.2,1.91.22,2.88.21,13.22-4.73,23.52-15.75,28.71-5.13,2.42-11.57,3.73-19.44,3.71-.21,0-.42-.02-.63-.02-19.41-.28-35.9-11.13-42.79-30.89-4.5-12.37-6.24-23.08-7.16-30.96-1.45.52-2.89,1.04-4.34,1.55.59,7.73.92,16.49,1.08,24.84.25,12.95.1,24.92-.12,30.53,12.2,4.77,30.92,11.06,48.79,11.3.3,0,.6.04.89.04,26.41.07,50.82-10.11,59.62-32.84v.2c3.7-9.16,10.48-7.38,13.29-1.51-1.08-2.62-2.22-5.22-3.44-7.77-1.94-4.03-4.07-7.94-6.36-11.75-.16-.26-.3-.53-.46-.79-1.19-1.96-2.43-3.89-3.71-5.79-9.23-13.71-20.71-25.79-33.89-35.71-1.64-1.23-3.31-2.42-5-3.58-11.68-8.05-24.57-14.45-38.35-18.89-4.91-1.58-9.93-2.93-15.06-4,0,0,0,0,0,0-4.39-.91-8.87-1.61-13.39-2.13,0,0,0,0,0,0-.76-.09-1.51-.19-2.27-.26-4.8-.47-9.66-.72-14.58-.72-5.56,0-11.05.33-16.45.93-4.87.54-9.66,1.31-14.37,2.31h0Z"/>
  <path class="cls-1" d="m633.55,372.07c20.47,0,33.54,16.25,35.32,39.73,1.02.76,2.01,1.56,3.01,2.34l.79-.36c-.33-12.71-.33-29.66,1.63-47.91l-2.93-.98-3.58,12.06c-4.89-5.21-19.23-9.78-31.62-9.78-16.21,0-29.8,5.77-38.13,15.98,4.12.53,8.19,1.21,12.2,2.07,4.18-8.46,12.77-13.15,23.33-13.15Z"/>
  <path class="cls-1" d="m327.18,678.27c-16.3,0-28.35-6.84-36.18-21.84-5.87-10.75-8.8-26.07-8.8-42.37,0-37.16,12.71-67.14,41.39-67.14,18.25,0,25.75,10.43,25.75,26.4,0,2.94-.65,6.85-1.3,9.78-.65,2.93.33,5.22,2.28,6.52,1.63,1.3,4.24,1.63,6.52,1.63,7.5,0,14.01-5.22,14.01-14.34,0-23.8-22.16-34.55-47.26-34.55-47.59,0-70.07,36.18-70.07,74.96,0,23.14,5.21,39.43,14.99,50.84,10.75,13.04,25.1,19.55,48.56,19.55,27.71,0,48.89-14.67,56.06-41.39l-3.91-2.28c-6.52,20.86-18.91,34.22-42.04,34.22Z"/>
  <path class="cls-1" d="m493.06,663.61c-6.52,14.01-15.97,19.55-29.33,19.55-14.34,0-26.07-7.82-32.92-21.84-5.22-11.41-8.47-29.99-8.47-48.89s2.74-34.47,8.16-45.56c-1.18-5.25-2.1-10.61-2.72-16.05-22.36,12.41-34.12,37.2-34.12,65.84,0,40.74,23.14,71.05,67.14,71.05,20.4,0,37.11-6.74,48.89-19.01-5.23-2.68-10.3-5.62-15.17-8.87-.47,1.34-.95,2.61-1.45,3.76Z"/>
  <path class="cls-1" d="m590.18,747.7c-1.17-17.88-1.03-39.47-.99-62.84-3.54.25-7.11.42-10.71.42-4.75,0-9.44-.25-14.08-.68-.23,38.72-1.65,56.7-2.24,65.05-.65,6.52-3.26,7.82-20.21,9.13l-1.63,3.91c8.8-.65,19.88-1.63,35.2-1.63,17.92-.33,29.01.33,36.18.33l1.3-3.91c-18.91-.65-22.16-1.63-22.82-9.78Z"/>
  <path class="cls-1" d="m623.1,682.83h-.33c-3.31,0-6.63-.57-9.85-1.55-3.86.9-7.77,1.69-11.73,2.29,6.68,2.55,14.45,4.15,21.91,4.15,35.3,0,57.28-18.79,65.44-49.91-10.4,10.98-22.41,20.4-35.67,27.89-6.36,10.27-15.84,17.13-29.78,17.13Z"/>
  <path class="cls-1" d="m753.46,672.08c-.65-6.85-.97-16.62-.97-40.42v-36.5c0-26.07.97-44.32,1.3-52.8-7.05,1.76-15.62,3.04-24.18,3.95-.54,6.48-1.47,12.84-2.81,19.06.34,6.69.59,16.47.59,29.46v36.83c0,20.21-.98,34.22-1.3,40.42-.65,5.86-2.93,8.15-18.58,8.8l-.65,3.91c9.12,0,16.94-1.3,30.63-1.3s25.42,1.3,32.92,1.3l.33-3.91c-14.34-.65-16.62-1.96-17.27-8.8Z"/>
  <path class="cls-1" d="m737.82,507.81c7.82,0,14.99-5.54,14.99-14.34s-4.56-14.67-13.69-14.67h-.33c-7.19,0-13.71,5.43-14.24,13.92.87,3.09,1.66,6.21,2.33,9.38,2.51,3.67,6.66,5.71,10.94,5.71Z"/>
  <path class="cls-1" d="m855.15,542.36h-.33c-44.98,0-69.1,33.24-69.1,74.31s23.14,71.05,67.14,71.05c41.72,0,68.12-28.03,68.12-74.31,0-41.39-24.12-71.05-65.84-71.05Zm29.99,121.24c-6.52,14.01-15.97,19.55-29.33,19.55-14.34,0-26.07-7.82-32.92-21.84-5.22-11.41-8.47-29.99-8.47-48.89s2.93-35.85,8.8-46.93c6.84-11.73,16.3-18.25,29.98-18.25h.33c14.99,0,24.44,8.15,30.64,20.21,5.22,10.43,8.47,29.01,8.47,48.89,0,20.86-3.26,37.48-7.5,47.26Z"/>
  <path class="cls-1" d="m698.99,543.23c10.2-.52,15.75,1.41,18.65,4.13,1.31,1.24,2.1,2.64,2.49,4.06.04.14.05.31.09.45.07.31.13.63.18.97.08.48.13,1,.18,1.54.84,9.75-2.92,27.7-4.79,33.4,1.34-3.39,2.59-6.81,3.68-10.32.6-1.94,1.14-3.9,1.67-5.87.73-2.73,1.4-5.49,1.97-8.28.67-3.27,1.19-6.59,1.64-9.94.3-2.2.55-4.42.75-6.65.31-3.46.48-6.96.55-10.49.02-.9.07-1.78.07-2.68,0-2.55-.06-5.08-.19-7.6-.09-1.78-.25-3.55-.4-5.31.38,8.43-2.08,14.78-7.26,16.43-6.45.63-12.77,1.08-18.46,1.38-.27,1.59-.53,3.18-.8,4.77Z"/>
  <path class="cls-1" d="m456.84,450.05s-.06,0-.09,0c-.25.36-.51.71-.75,1.07.28-.39.56-.77.85-1.07Z"/>
  <path class="cls-1" d="m697.96,599.61c-1.22-18.95-6.74-35.68-14.14-45.98-9.19-13.07-22.41-21.84-42.92-21.81-19.08.01-35.77,7.88-51.61,21.51-4.8,4.13-9.52,8.77-14.21,13.9.03-4.16-.09-13.25-.17-22.21-.05-4.82-.08-9.59-.08-13.54-15.23,4.44-38.18,6.48-54.72,7.28-.67,1.48-1.35,2.96-2.02,4.44,19.35-.82,24.17.39,24.56,6.02.37,6.8,1.56,22.64,1.31,56.7-.15,18.95-.35,37.6-.59,55.89-.01.17-.08.3-.08.48,0,15.64-20.73,9.79-26.07-3.34-1.21-2.97-1.64-6.3-.85-9.85.13-.61.3-1.22.51-1.83.06-.17.06-.31.11-.47.12-.5.2-1.03.32-1.54,1.84-8.04,2.91-16.76,2.98-26.27.19-31.07-11.31-57.15-32.4-72.45-10.71-7.77-23.88-12.76-39.26-14.2,0,0,0,0,0,0-13.62-1.22-14.23-17.35-6.8-23.43,1.71-1.4,3.84-2.27,6.34-2.3.09,0,.15-.01.24-.01,4.06.18,8.04.39,11.81.58,5.7.28,10.9.5,15.14.5.27-1.61.54-3.22.81-4.83-27.01-1.19-29.4-3.21-29.79-11.24-.38-10.79,4.03-31.33,8.88-39.41-.25.38-.49.78-.74,1.16-3.2,4.93-6.12,10.04-8.72,15.35-3.95,8.07-7.17,16.56-9.61,25.38-.24.86-.51,1.71-.73,2.58-.8,3.11-1.46,6.28-2.06,9.47-.15.79-.29,1.58-.42,2.37-1.32,7.72-2.05,15.63-2.13,23.7,0,.45-.03.9-.03,1.35,0,1.59.07,3.16.12,4.73.11,3.56.31,7.09.67,10.58.45,4.36,1.11,8.65,1.93,12.88.04.22.07.44.12.66-.03-.23-.06-.46-.09-.7-.65-4.82-.54-9.86.65-14,1.57-5.42,5-9.28,11.05-9.01,4.12.76,7.84,2.1,11.2,3.94,2.43,1.33,4.67,2.91,6.74,4.72,4.73,4.13,8.59,9.43,11.75,15.55,6.47,12.84,10.51,35.71,10.54,59.62,0,3.22-.06,6.33-.18,9.36l-.1-.04c-1.61,10.68-10.18,7.38-16.27.69,1.67,1.84,3.37,3.65,5.13,5.4,3.21,3.21,6.57,6.26,10.06,9.16.14.12.28.25.42.37,3.59,2.96,7.33,5.76,11.2,8.38.06.04.11.08.17.12,4.7,3.17,9.61,6.05,14.67,8.68.6.31,1.21.63,1.82.93,9.69,4.86,19.99,8.69,30.76,11.33,6.9,1.69,13.99,2.91,21.24,3.6,4.36.41,8.78.64,13.25.66.27,0,.54.02.82.02,2.55,0,5.08-.06,7.6-.19,1.05-.05,2.08-.16,3.12-.24,1.7-.12,3.4-.24,5.08-.42,2.24-.24,4.47-.51,6.68-.85-1.9.29-3.82.51-5.75.73-.35.03-.69.05-1.06.04-1.54,0-3.22-.24-4.95-.69-6.55-1.71-13.65-6.35-15.18-12.06-.29-21.23.02-35.3.85-74.77.07-6.36,1.3-10.74,3.34-15.14,2.95-6.6,6.74-12.32,11.19-17.05,9.04-9.61,20.89-15.08,34.44-15.1.3,0,.56.05.86.05,13.77.26,22.94,7.32,29.36,17.81,7.72,12.31,11.63,34.46,11.12,53.19-.11,4.17-.35,8.41-.73,12.65l-.17.39c-.27,3.73-1.15,7.74-2.44,11.68-3.33,10.22-9.47,19.97-15.48,23.42,2.94-1.53,5.84-3.11,8.66-4.82.49-.3.96-.62,1.45-.93,1-.62,1.99-1.26,2.97-1.91.19-.13.37-.27.56-.39,2.31-1.52,4.59-3.08,6.79-4.73,1.89-1.42,3.75-2.88,5.58-4.38,5.47-4.51,10.61-9.41,15.37-14.66.86-.94,1.67-1.93,2.5-2.89h0c2.25-2.61,4.45-5.28,6.52-8.04.28-.38.54-.78.82-1.16,2.52-3.44,4.91-6.97,7.13-10.62,1.62-2.66,3.12-5.39,4.57-8.16-4.96,8.76-10.06,3.53-11.35-2.35Z"/>
</svg>